<?xml version="1.0" encoding="utf-8"?>
<!-- Generator: Adobe Illustrator 24.0.3, SVG Export Plug-In . SVG Version: 6.00 Build 0)  -->
<!DOCTYPE svg PUBLIC "-//W3C//DTD SVG 1.1//EN" "http://www.w3.org/Graphics/SVG/1.1/DTD/svg11.dtd" [
	<!ENTITY ns_extend "http://ns.adobe.com/Extensibility/1.0/">
	<!ENTITY ns_ai "http://ns.adobe.com/AdobeIllustrator/10.0/">
	<!ENTITY ns_graphs "http://ns.adobe.com/Graphs/1.0/">
	<!ENTITY ns_vars "http://ns.adobe.com/Variables/1.0/">
	<!ENTITY ns_imrep "http://ns.adobe.com/ImageReplacement/1.0/">
	<!ENTITY ns_sfw "http://ns.adobe.com/SaveForWeb/1.0/">
	<!ENTITY ns_custom "http://ns.adobe.com/GenericCustomNamespace/1.0/">
	<!ENTITY ns_adobe_xpath "http://ns.adobe.com/XPath/1.0/">
]>
<svg version="1.1" xmlns:x="&ns_extend;" xmlns:i="&ns_ai;" xmlns:graph="&ns_graphs;"
	 xmlns="http://www.w3.org/2000/svg" xmlns:xlink="http://www.w3.org/1999/xlink" x="0px" y="0px" viewBox="0 0 449.6 769.2"
	 style="enable-background:new 0 0 449.6 769.2;" xml:space="preserve">
<style type="text/css">
	.st0{fill:#AA3333;}
	.st1{fill:#FFFFFF;}
	.st2{fill:#272624;}
	.st3{fill:#868F8E;}
	.st4{fill:#5E2313;}
</style>
<metadata>
	<sfw  xmlns="&ns_sfw;">
		<slices></slices>
		<sliceSourceBounds  bottomLeftOrigin="true" height="769.2" width="449.6" x="18.8" y="-797.8"></sliceSourceBounds>
	</sfw>
</metadata>
<g id="Layer_1">
</g>
<g id="Layer_2">
</g>
<g id="Layer_3">
</g>
<g id="Layer_4">
	<path class="st0" d="M381,596.3c10.4,26.2,13.3,50.5-1.5,70.5l-0.1,2.8c-1.2,55.3-46.4,99.5-101.7,99.5H167.3
		c-57.8,0-105.1-46.2-106.3-104c-4.5-7.4-6.7-16.5-6.7-27c0-9.8,1.9-20.9,5.3-33L49.1,114.7c1-8.1,2.8-15.9,5.1-23.4
		c7.2-23,20.6-43,38.1-58.5c12-10.6,26-19.1,41.4-24.7c14.1-5.2,29.3-8,45.1-8h82.9c21.1,0,41.1,5,58.8,14h0.1
		c32.8,16.6,57.8,46.6,67.5,83.3c1.5,5.7,2.6,11.5,3.3,17.4L381,596.3z"/>
	<path class="st1" d="M133.6,8c-22.9,20.7-55.3,56-79.4,83.2c7.2-23,20.6-43,38.1-58.5C104.2,22.1,118.3,13.7,133.6,8z"/>
	<path class="st1" d="M388,97.3c-20.2-26.4-46.7-58.8-67.5-83.3C353.3,30.5,378.4,60.5,388,97.3z"/>
	<path class="st2" d="M354.3,361.7c-14.1-72.3-232.9-65.3-255.8-3.5l-30-132.3c70.6-102.3,280.5-93.5,303.4,1.8L354.3,361.7z"/>
	<path class="st3" d="M343.4,327.3c-13-55.4-214-50-235-2.7L80.8,223.3c64.8-78.4,257.7-71.6,278.8,1.4L343.4,327.3z"/>
	<polygon class="st2" points="77.3,310.5 95,379.3 96.7,495.7 75.6,494 	"/>
	<polygon class="st3" points="81.3,339.3 91,393.3 92,484.6 80.4,483.2 	"/>
	<polygon class="st2" points="73.8,509.8 96.7,508.1 100.3,666.8 91.5,689.8 	"/>
	<polygon class="st3" points="87.7,517.1 93.6,515.5 94.5,662.1 92.2,683.3 	"/>
	<polygon class="st2" points="372.8,310.5 355.2,379.3 353.4,495.7 374.6,494 	"/>
	<polygon class="st3" points="368.8,339.3 359.1,393.3 358.2,484.6 369.8,483.2 	"/>
	<polygon class="st2" points="376.3,509.8 353.4,508.1 349.9,666.8 358.7,689.8 	"/>
	<polygon class="st3" points="362.4,517.1 356.6,515.5 355.7,662.1 357.9,683.3 	"/>
	<path class="st2" d="M105.6,700.4c74.1,39.4,152.9,40,236.4,1.8l8.8,17.6c-76.4,40.4-159.3,47.5-252.3,3.5L105.6,700.4z"/>
	<path class="st3" d="M110.5,710.7c70.4,34.9,146.6,35.6,227.7,0.4l8.5,9c-72.7,35.7-152.8,41.9-242.9,2.2L110.5,710.7z"/>
	<path class="st4" d="M5.6,375.4l48-13c5.6-1.5,9.3-6.8,8.8-12.5v0c-0.6-7.3,1.5-14.5,5.8-20.3l3.8-5.1l-1.8-15.9
		c-32,16.2-60.1,34.3-70,61C-1,373,2.2,376.4,5.6,375.4z"/>
	<path class="st4" d="M443.9,375.4l-48-13c-5.6-1.5-9.3-6.8-8.8-12.5v0c0.6-7.3-1.5-14.5-5.8-20.3l-3.8-5.1l1.8-15.9
		c32,16.2,60.1,34.3,70,61C450.5,373,447.4,376.4,443.9,375.4z"/>
</g>
<g id="Layer_5">
</g>
<g id="Layer_6">
</g>
<g id="Layer_7">
</g>
<g id="Layer_8">
</g>
<g id="Layer_9">
</g>
<g id="Layer_10">
</g>
<g id="Layer_11">
</g>
<g id="Layer_12">
</g>
<g id="Layer_13">
</g>
<g id="Layer_14">
</g>
<g id="Layer_15">
</g>
<g id="Layer_16">
</g>
<g id="Layer_21">
</g>
<g id="Layer_17">
</g>
<g id="Layer_18">
</g>
<g id="Layer_19">
</g>
<g id="Layer_20">
</g>
<g id="Layer_22">
</g>
<g id="Layer_23">
</g>
<g id="Layer_24">
</g>
</svg>
